<?xml version="1.0" encoding="UTF-8" standalone="no"?>
<!-- Created with Inkscape (http://www.inkscape.org/) -->

<svg
   version="1.1"
   id="svg1"
   width="960"
   height="384"
   viewBox="0 0 960 384"
   sodipodi:docname="eagle-rock.eps"
   xmlns:inkscape="http://www.inkscape.org/namespaces/inkscape"
   xmlns:sodipodi="http://sodipodi.sourceforge.net/DTD/sodipodi-0.dtd"
   xmlns="http://www.w3.org/2000/svg"
   xmlns:svg="http://www.w3.org/2000/svg">
  <defs
     id="defs1" />
  <sodipodi:namedview
     id="namedview1"
     pagecolor="#ffffff"
     bordercolor="#000000"
     borderopacity="0.25"
     inkscape:showpageshadow="2"
     inkscape:pageopacity="0.0"
     inkscape:pagecheckerboard="0"
     inkscape:deskcolor="#d1d1d1">
    <inkscape:page
       x="0"
       y="0"
       inkscape:label="1"
       id="page1"
       width="960"
       height="384"
       margin="0"
       bleed="0" />
  </sodipodi:namedview>
  <g
     id="g1"
     inkscape:groupmode="layer"
     inkscape:label="1">
    <g
       id="group-R5">
      <path
         id="path2"
         d="m 1381.79,2124.7 c -12.03,-5.38 -92.11,-45.57 -108.25,-60.45 -16.15,-14.87 -7.28,-25.96 1.9,-28.8 9.17,-2.85 54.12,-4.12 102.55,-27.86 69.41,-34.03 129.14,-79.29 142.9,-87.83 13.77,-8.55 19.47,-17.09 33.71,-17.09 20.42,0 27.84,8.11 42.26,25.63 33.33,40.51 70.74,102.08 120.59,106.83 31.42,3 47.95,2.53 67.89,3.32 15.69,0.62 30.55,8.71 42.26,15.19 17.46,9.68 45.76,27.56 56.81,35.3 19.78,13.84 36.72,34.18 18.36,40.51 -33.55,-1.9 -118.38,-7.91 -276.95,-9.81 -158.58,-1.9 -207.48,8.54 -219.35,9.49 -11.87,0.95 -24.68,-4.43 -24.68,-4.43"
         style="fill:#ffffff;fill-opacity:1;fill-rule:nonzero;stroke:none"
         transform="matrix(0.13333333,0,0,-0.13333333,0,384)" />
      <path
         id="path3"
         d="m 938.727,1349.24 c 1.8,103.78 4.414,798.51 7.058,823.89 2.153,20.68 33.695,63.89 49.02,78.45 6.535,6.21 3.558,11.33 -0.887,17.74 -5.684,8.2 -14.715,15.45 -19.172,12.69 -39.406,-24.37 -130.918,-132.78 -139.109,-143.54 -8.071,-10.6 -9.653,-21.99 -9.653,-33.71 0,-4.24 -0.371,-668.57 -0.699,-753.62 -1.797,-103.78 -4.41,-218.65 -7.055,-244.04 -2.156,-20.68 -33.402,-58.94 -49.019,-78.45 -5.637,-7.03 -3.559,-11.33 0.887,-17.74 5.679,-8.19 14.711,-15.441 19.172,-12.691 39.406,24.381 130.918,132.781 139.105,143.541 8.074,10.61 9.656,22 9.656,33.71 0,4.24 0.371,88.71 0.696,173.77"
         style="fill:#ffffff;fill-opacity:1;fill-rule:nonzero;stroke:none"
         transform="matrix(0.13333333,0,0,-0.13333333,0,384)" />
      <path
         id="path4"
         d="m 1194.58,1349.24 c 1.81,103.78 4.42,198.39 7.06,223.78 2.16,20.68 33.7,63.88 49.02,78.44 6.54,6.22 3.56,11.34 -0.89,17.75 -5.68,8.19 -14.71,15.44 -19.17,12.69 -39.4,-24.37 -130.91,-132.78 -139.1,-143.54 -8.08,-10.61 -9.66,-22 -9.66,-33.71 0,-4.24 -0.37,-68.46 -0.69,-153.51 -1.8,-103.78 -4.42,-218.65 -7.06,-244.04 -2.16,-20.68 -34.64,-60.37 -49.02,-78.45 -5.62,-7.05 -3.56,-11.33 0.89,-17.74 5.68,-8.19 14.71,-15.441 19.17,-12.691 39.4,24.381 130.91,132.781 139.11,143.541 8.07,10.61 9.65,22 9.65,33.71 0,4.24 0.37,88.71 0.69,173.77"
         style="fill:#ffffff;fill-opacity:1;fill-rule:nonzero;stroke:none"
         transform="matrix(0.13333333,0,0,-0.13333333,0,384)" />
      <path
         id="path5"
         d="m 1450.44,1349.24 c 1.8,103.78 4.42,198.39 7.06,223.78 2.16,20.68 33.7,63.88 49.02,78.44 6.54,6.22 3.56,11.34 -0.89,17.75 -5.68,8.19 -14.71,15.44 -19.17,12.69 -39.4,-24.37 -130.92,-132.78 -139.11,-143.54 -8.07,-10.61 -9.65,-22 -9.65,-33.71 0,-4.24 -0.37,-68.46 -0.7,-153.51 -1.8,-103.78 -4.41,-218.65 -7.05,-244.04 -2.16,-20.68 -32.54,-57.99 -49.02,-78.45 -5.66,-7.02 -3.56,-11.33 0.89,-17.74 5.68,-8.19 14.71,-15.441 19.16,-12.691 39.41,24.381 130.92,132.781 139.11,143.541 8.07,10.61 9.66,22 9.66,33.71 0,4.24 0.37,88.71 0.69,173.77"
         style="fill:#ffffff;fill-opacity:1;fill-rule:nonzero;stroke:none"
         transform="matrix(0.13333333,0,0,-0.13333333,0,384)" />
      <path
         id="path6"
         d="m 1706.3,1349.24 c 1.8,103.78 4.42,198.39 7.06,223.78 2.15,20.68 33.7,63.88 49.02,78.44 6.54,6.22 3.56,11.34 -0.89,17.75 -5.68,8.19 -14.71,15.44 -19.17,12.69 -39.4,-24.37 -130.92,-132.78 -139.11,-143.54 -8.07,-10.61 -9.65,-22 -9.65,-33.71 0,-4.24 -0.37,-68.46 -0.7,-153.51 -1.8,-103.78 -4.41,-218.65 -7.06,-244.04 -2.15,-20.68 -35.35,-61.01 -49.01,-78.45 -5.57,-7.09 -3.56,-11.33 0.88,-17.74 5.68,-8.19 14.72,-15.441 19.17,-12.691 39.41,24.381 130.92,132.781 139.11,143.541 8.07,10.61 9.66,22 9.66,33.71 0,4.24 0.37,88.71 0.69,173.77"
         style="fill:#ffffff;fill-opacity:1;fill-rule:nonzero;stroke:none"
         transform="matrix(0.13333333,0,0,-0.13333333,0,384)" />
      <path
         id="path7"
         d="m 1962.16,1349.24 c 1.8,103.78 4.42,198.39 7.06,223.78 2.15,20.68 33.7,63.88 49.02,78.44 6.54,6.22 3.56,11.34 -0.89,17.75 -5.68,8.19 -14.71,15.44 -19.17,12.69 -39.41,-24.37 -130.92,-132.78 -139.11,-143.54 -8.07,-10.61 -9.65,-22 -9.65,-33.71 0,-4.24 -0.37,-68.46 -0.7,-153.51 -1.8,-103.78 -4.41,-218.65 -7.06,-244.04 -2.15,-20.68 -36.27,-62.92 -49.01,-78.45 -5.73,-6.97 -3.56,-11.33 0.88,-17.74 5.68,-8.19 14.71,-15.441 19.17,-12.691 39.41,24.381 130.92,132.781 139.11,143.541 8.07,10.61 9.65,22 9.65,33.71 0,4.24 0.38,88.71 0.7,173.77"
         style="fill:#ffffff;fill-opacity:1;fill-rule:nonzero;stroke:none"
         transform="matrix(0.13333333,0,0,-0.13333333,0,384)" />
      <path
         id="path8"
         d="m 938.727,749.129 c 1.8,103.769 4.414,218.641 7.058,244.031 2.153,20.68 33.695,63.89 49.02,78.45 6.535,6.21 3.558,11.33 -0.887,17.74 -5.684,8.19 -14.715,15.45 -19.172,12.69 C 935.34,1077.67 843.828,969.262 835.637,958.5 c -8.071,-10.602 -9.653,-22 -9.653,-33.711 0,-4.238 -0.371,-88.707 -0.699,-173.769 -1.797,-103.77 -4.41,-203.45 -7.055,-228.84 -2.156,-20.68 -36.738,-62.899 -49.019,-78.442 -5.59,-7.078 -3.559,-11.34 0.887,-17.75 5.679,-8.187 14.711,-15.449 19.172,-12.687 39.406,24.371 130.918,132.781 139.105,143.539 8.074,10.609 9.656,22 9.656,33.711 0,4.238 0.371,73.519 0.696,158.578"
         style="fill:#ffffff;fill-opacity:1;fill-rule:nonzero;stroke:none"
         transform="matrix(0.13333333,0,0,-0.13333333,0,384)" />
      <path
         id="path9"
         d="m 1194.58,749.129 c 1.81,103.769 4.42,218.641 7.06,244.031 2.16,20.68 33.7,63.89 49.02,78.45 6.54,6.21 3.56,11.33 -0.89,17.74 -5.68,8.19 -14.71,15.45 -19.17,12.69 -39.4,-24.37 -130.91,-132.778 -139.1,-143.54 -8.08,-10.602 -9.66,-22 -9.66,-33.711 0,-4.238 -0.37,-88.707 -0.69,-173.769 -1.8,-103.77 -4.42,-203.45 -7.06,-228.84 -2.16,-20.68 -36.39,-61.629 -49.02,-78.442 -5.42,-7.218 -3.56,-11.34 0.89,-17.75 5.68,-8.187 14.71,-15.449 19.17,-12.687 39.4,24.371 130.91,132.781 139.11,143.539 8.07,10.609 9.65,22 9.65,33.711 0,4.238 0.37,73.519 0.69,158.578"
         style="fill:#ffffff;fill-opacity:1;fill-rule:nonzero;stroke:none"
         transform="matrix(0.13333333,0,0,-0.13333333,0,384)" />
      <path
         id="path10"
         d="m 1450.44,749.129 c 1.8,103.769 4.42,218.641 7.06,244.031 2.16,20.68 33.7,63.89 49.02,78.45 6.54,6.21 3.56,11.33 -0.89,17.74 -5.68,8.19 -14.71,15.45 -19.17,12.69 -39.4,-24.37 -130.92,-132.778 -139.11,-143.54 -8.07,-10.602 -9.65,-22 -9.65,-33.711 0,-4.238 -0.37,-88.707 -0.7,-173.769 -1.8,-103.77 -4.41,-203.45 -7.05,-228.84 -2.16,-20.68 -36.03,-61.629 -49.02,-78.442 -5.52,-7.136 -3.56,-11.34 0.89,-17.75 5.68,-8.187 14.71,-15.449 19.16,-12.687 39.41,24.371 130.92,132.781 139.11,143.539 8.07,10.609 9.66,22 9.66,33.711 0,4.238 0.37,73.519 0.69,158.578"
         style="fill:#ffffff;fill-opacity:1;fill-rule:nonzero;stroke:none"
         transform="matrix(0.13333333,0,0,-0.13333333,0,384)" />
      <path
         id="path11"
         d="m 1706.3,749.129 c 1.8,103.769 4.42,218.641 7.06,244.031 2.15,20.68 33.7,63.89 49.02,78.45 6.54,6.21 3.56,11.33 -0.89,17.74 -5.68,8.19 -14.71,15.45 -19.17,12.69 -39.4,-24.37 -130.92,-132.778 -139.11,-143.54 -8.07,-10.602 -9.65,-22 -9.65,-33.711 0,-4.238 -0.37,-88.707 -0.7,-173.769 -1.8,-103.77 -4.41,-203.45 -7.06,-228.84 -2.15,-20.68 -32.49,-56.539 -49.01,-78.442 -5.44,-7.199 -3.56,-11.34 0.88,-17.75 5.68,-8.187 14.72,-15.449 19.17,-12.687 39.41,24.371 130.92,132.781 139.11,143.539 8.07,10.609 9.66,22 9.66,33.711 0,4.238 0.37,73.519 0.69,158.578"
         style="fill:#ffffff;fill-opacity:1;fill-rule:nonzero;stroke:none"
         transform="matrix(0.13333333,0,0,-0.13333333,0,384)" />
      <path
         id="path12"
         d="m 1962.16,749.129 c 1.8,103.769 4.42,218.641 7.06,244.031 2.15,20.68 33.7,63.89 49.02,78.45 6.54,6.21 3.56,11.33 -0.89,17.74 -5.68,8.19 -14.71,15.45 -19.17,12.69 -39.41,-24.37 -130.92,-132.778 -139.11,-143.54 -8.07,-10.602 -9.65,-22 -9.65,-33.711 0,-4.238 -0.37,-88.707 -0.7,-173.769 -1.8,-103.77 -4.41,-203.45 -7.06,-228.84 -2.15,-20.68 -35.31,-60.36 -49.01,-78.442 -5.45,-7.187 -3.56,-11.34 0.88,-17.75 5.68,-8.187 14.71,-15.449 19.17,-12.687 39.41,24.371 130.92,132.781 139.11,143.539 8.07,10.609 9.65,22 9.65,33.711 0,4.238 0.38,73.519 0.7,158.578"
         style="fill:#ffffff;fill-opacity:1;fill-rule:nonzero;stroke:none"
         transform="matrix(0.13333333,0,0,-0.13333333,0,384)" />
      <path
         id="path13"
         d="m 2218.02,749.129 c 1.8,103.769 4.41,218.641 7.06,244.031 2.15,20.68 33.69,63.89 49.02,78.45 6.53,6.21 3.56,11.33 -0.89,17.74 -5.68,8.19 -14.71,15.45 -19.17,12.69 -39.41,-24.37 -130.92,-132.778 -139.11,-143.54 -8.07,-10.602 -9.65,-22 -9.65,-33.711 0,-4.238 -0.37,-88.707 -0.7,-173.769 -1.8,-103.77 -4.41,-203.45 -7.06,-228.84 -2.15,-20.68 -34.96,-60.36 -49.02,-78.442 -5.53,-7.129 -3.55,-11.34 0.89,-17.75 5.68,-8.187 14.71,-15.449 19.17,-12.687 39.41,24.371 130.92,132.781 139.11,143.539 8.07,10.609 9.65,22 9.65,33.711 0,4.238 0.37,73.519 0.7,158.578"
         style="fill:#ffffff;fill-opacity:1;fill-rule:nonzero;stroke:none"
         transform="matrix(0.13333333,0,0,-0.13333333,0,384)" />
      <path
         id="path14"
         d="m 2550.99,1916.12 c -1.26,67.1 -58.23,115.21 -85.46,143.06 -57.42,58.76 -88.3,80.71 -134.83,81.66 -25.65,0.53 -116.16,4.44 -142.72,6.52 -59.98,4.69 -102.48,40.21 -170.95,108.07 -51.71,51.25 -125.34,106.34 -218.39,106.34 -46.85,0 -373.18,-10.13 -459.27,-11.39 -46.7,-0.69 -235.17,-3.95 -338.04,-3.95 -103.814,0 -152.814,8.38 -182.31,21.67 -51.274,23.11 -46.844,44.32 -74.7,41.78 -16.039,-1.45 -51.152,-22.84 -97.484,-43.04 -6.195,-2.7 -16.371,-15.21 -22.789,-17.41 -23.172,-7.95 -24.445,-33.68 11.969,-55.69 24.113,-14.58 62.093,-29.77 147.55,-38.34 69.145,-6.94 167.825,-10.42 241.194,-10.42 55.1,0 275.36,7.59 333.29,8.54 57.92,0.96 260.76,9.5 297.84,9.5 162.05,0 203.79,-37.09 226.62,-56.97 19.63,-17.09 109.83,-98.75 137.37,-121.55 45.53,-37.68 69.25,-33.4 179.47,-36.08 78.17,-1.9 105.39,-9.01 139.58,-36.08 15.19,-12.03 24.34,-20.37 32.28,-27.54 48.11,-43.36 71.63,-69.01 73.12,-179.46 0.73,-54.05 1.23,-96.53 1.44,-131.67 0.18,-30.29 -0.49,-78.1 -32.79,-78.1 -25.74,0 -54.28,-1.24 -84.43,-1.77 -78.55,-0.3 -156.56,-0.64 -160.47,-0.64 -10.82,0 -21.34,-1.46 -31.13,-8.92 -7.58,-5.76 -62.91,-47.69 -100.61,-87.82 -9.81,-10.45 11.88,-36.97 21.52,-31.02 14.88,9.18 27.22,17.39 39.28,16.47 4.03,-0.3 7.8,-4.84 7.79,-8.87 -0.03,-19.71 -0.19,-81.07 -0.35,-121.86 -1.8,-103.78 -4.41,-218.65 -7.06,-244.04 -2.15,-20.67 -36.95,-63.23 -49.02,-78.44 -5.6,-7.07 -3.55,-11.34 0.89,-17.75 5.68,-8.19 14.71,-15.441 19.17,-12.691 39.41,24.381 130.92,132.781 139.11,143.541 8.07,10.61 9.65,22 9.65,33.71 0,4.24 0.37,88.71 0.7,173.77 0.73,42.15 2.54,81.51 2.54,120.59 0,11.22 6.8,17.52 14.55,17.52 28.18,0 66.3,1.19 95.19,1.69 31.58,0.12 51.65,0.36 78.26,0.36 27.22,0 25.96,-27.8 19.63,-44.26 -3.61,-9.37 -6.29,-12.49 -9.68,-18.38 -15.49,-26.87 -39.71,-57.62 -51.11,-74.66 -8.06,-12.04 25.34,-31.66 34.2,-25.33 8.86,6.33 79.76,65.83 102.55,89.89 22.79,24.05 44.31,40.51 45.58,108.88 1.26,68.37 2.53,323.48 1.26,390.58"
         style="fill:#ffffff;fill-opacity:1;fill-rule:nonzero;stroke:none"
         transform="matrix(0.13333333,0,0,-0.13333333,0,384)" />
      <path
         id="path15"
         d="M 2400.23,538.602 C 1917.08,55.4414 1121.01,79.25 637.852,562.398 154.699,1045.56 142.379,1855.02 625.535,2338.18 1108.69,2821.34 1931.1,2803.71 2414.26,2320.55 2897.41,1837.4 2883.39,1021.76 2400.23,538.602 Z M 2511.57,2416.7 C 1975.68,2952.59 1110.68,2931.03 574.793,2395.14 38.9023,1859.26 5.59766,1002.75 541.484,466.871 1077.37,-69.0195 1917.06,-54.7813 2452.95,481.109 2988.83,1016.99 3047.46,1880.81 2511.57,2416.7"
         style="fill:#ffffff;fill-opacity:1;fill-rule:nonzero;stroke:none"
         transform="matrix(0.13333333,0,0,-0.13333333,0,384)" />
      <path
         id="path16"
         d="m 3110,1971.37 h 276.7 v -68.01 h -194.68 v -78.91 h 174.95 v -68 h -174.95 v -80.47 h 200.39 v -68 H 3110 v 363.39"
         style="fill:#ffffff;fill-opacity:1;fill-rule:nonzero;stroke:none"
         transform="matrix(0.13333333,0,0,-0.13333333,0,384)" />
      <path
         id="path17"
         d="m 3620.29,1744.51 h 114.74 l -57.11,141.2 z m 169.76,-136.53 -28.55,70.6 h -168.2 l -28.54,-70.6 h -84.62 l 157.81,363.39 h 84.62 l 155.21,-363.39 h -87.73"
         style="fill:#ffffff;fill-opacity:1;fill-rule:nonzero;stroke:none"
         transform="matrix(0.13333333,0,0,-0.13333333,0,384)" />
      <path
         id="path18"
         d="m 4214.69,1791.23 h 71.13 v -141.21 c -19.4,-14.19 -42.57,-25.69 -69.57,-34.52 -26.99,-8.82 -52.95,-13.23 -77.87,-13.23 -36.34,0 -69.22,8.21 -98.63,24.66 -29.42,16.43 -52.61,38.93 -69.56,67.48 -16.96,28.55 -25.44,60.48 -25.44,95.78 0,34.95 8.65,66.71 25.95,95.26 17.31,28.55 41.1,50.96 71.38,67.23 30.28,16.26 63.94,24.39 100.97,24.39 26.99,0 53.38,-4.84 79.17,-14.53 25.78,-9.69 48.02,-22.84 66.71,-39.45 l -46.21,-58.66 c -13.49,12.8 -29.07,22.84 -46.71,30.11 -17.65,7.26 -35.31,10.89 -52.96,10.89 -21.11,0 -40.41,-5.1 -57.88,-15.31 -17.48,-10.21 -31.23,-24.06 -41.27,-41.53 -10.04,-17.48 -15.05,-36.95 -15.05,-58.4 0,-21.46 5.1,-41.1 15.31,-58.92 10.21,-17.83 24.05,-31.84 41.53,-42.05 17.47,-10.21 36.77,-15.32 57.88,-15.32 10.73,0 22.32,1.82 34.79,5.46 12.45,3.63 24.57,8.56 36.33,14.79 v 97.08"
         style="fill:#ffffff;fill-opacity:1;fill-rule:nonzero;stroke:none"
         transform="matrix(0.13333333,0,0,-0.13333333,0,384)" />
      <path
         id="path19"
         d="m 4422.34,1971.37 h 82.02 v -291.75 h 155.74 v -71.64 h -237.76 v 363.39"
         style="fill:#ffffff;fill-opacity:1;fill-rule:nonzero;stroke:none"
         transform="matrix(0.13333333,0,0,-0.13333333,0,384)" />
      <path
         id="path20"
         d="m 4773.78,1971.37 h 276.7 v -68.01 H 4855.8 v -78.91 h 174.95 v -68 H 4855.8 v -80.47 h 200.38 v -68 h -282.4 v 363.39"
         style="fill:#ffffff;fill-opacity:1;fill-rule:nonzero;stroke:none"
         transform="matrix(0.13333333,0,0,-0.13333333,0,384)" />
      <path
         id="path21"
         d="m 5453.84,1780.33 h 75.79 c 22.84,0 40.4,5.27 52.69,15.83 12.29,10.55 18.43,26.04 18.43,46.46 0,20.07 -6.14,35.21 -18.43,45.42 -12.29,10.21 -29.85,15.32 -52.69,15.32 h -75.79 z m 141.19,-172.35 -57.61,103.82 h -83.58 v -103.82 h -82.03 v 363.39 h 157.82 c 47.41,0 84.09,-10.99 110.05,-32.97 25.96,-21.98 38.93,-53.04 38.93,-93.18 0,-28.03 -5.79,-52 -17.39,-71.9 -11.59,-19.91 -28.47,-35.04 -50.61,-45.42 l 77.35,-119.92 h -92.93"
         style="fill:#ffffff;fill-opacity:1;fill-rule:nonzero;stroke:none"
         transform="matrix(0.13333333,0,0,-0.13333333,0,384)" />
      <path
         id="path22"
         d="m 5926.76,1890.12 c -17.31,-10.21 -30.98,-24.14 -41.02,-41.79 -10.04,-17.65 -15.05,-37.04 -15.05,-58.14 0,-21.46 5.11,-41.01 15.31,-58.66 10.21,-17.65 23.88,-31.67 41.01,-42.05 17.13,-10.38 35.74,-15.58 55.81,-15.58 20.07,0 38.5,5.11 55.29,15.32 16.78,10.21 30.11,24.22 39.97,42.05 9.87,17.82 14.79,37.46 14.79,58.92 0,21.1 -4.92,40.49 -14.79,58.14 -9.86,17.65 -23.19,31.58 -39.97,41.79 -16.79,10.21 -35.22,15.31 -55.29,15.31 -20.07,0 -38.76,-5.1 -56.06,-15.31 z m 154.17,62.56 c 29.77,-16.27 53.21,-38.68 70.34,-67.23 17.14,-28.55 25.71,-60.31 25.71,-95.26 0,-34.96 -8.57,-66.8 -25.71,-95.52 -17.13,-28.73 -40.57,-51.31 -70.34,-67.74 -29.77,-16.45 -62.81,-24.66 -99.14,-24.66 -36.35,0 -69.4,8.21 -99.16,24.66 -29.77,16.43 -53.21,38.93 -70.34,67.48 -17.13,28.55 -25.69,60.48 -25.69,95.78 0,34.95 8.56,66.71 25.69,95.26 17.13,28.55 40.49,50.96 70.08,67.23 29.59,16.26 62.73,24.39 99.42,24.39 36.33,0 69.37,-8.13 99.14,-24.39"
         style="fill:#ffffff;fill-opacity:1;fill-rule:nonzero;stroke:none"
         transform="matrix(0.13333333,0,0,-0.13333333,0,384)" />
      <path
         id="path23"
         d="m 6505.83,1892.72 c -16.78,8.47 -33.65,12.71 -50.61,12.71 -20.42,0 -39.11,-5.02 -56.06,-15.05 -16.96,-10.04 -30.29,-23.71 -39.97,-41.01 -9.7,-17.31 -14.54,-36.51 -14.54,-57.62 0,-21.11 4.84,-40.41 14.54,-57.88 9.68,-17.48 23.01,-31.33 39.97,-41.54 16.95,-10.21 35.64,-15.31 56.06,-15.31 16.26,0 32.79,3.9 49.59,11.68 16.77,7.79 31.74,18.25 44.89,31.41 l 48.29,-52.43 c -19.39,-20.08 -42.14,-36 -68.28,-47.76 -26.13,-11.77 -52.35,-17.65 -78.64,-17.65 -35.65,0 -68,8.21 -97.07,24.66 -29.08,16.43 -51.92,39.01 -68.53,67.74 -16.61,28.72 -24.91,60.74 -24.91,96.04 0,34.95 8.47,66.62 25.43,95 16.95,28.37 40.23,50.7 69.82,66.97 29.6,16.26 62.38,24.39 98.37,24.39 26.31,0 52.26,-5.44 77.87,-16.34 25.61,-10.91 47.42,-25.7 65.41,-44.39 l -47.76,-58.66 c -12.45,14.87 -27.08,26.55 -43.87,35.04"
         style="fill:#ffffff;fill-opacity:1;fill-rule:nonzero;stroke:none"
         transform="matrix(0.13333333,0,0,-0.13333333,0,384)" />
      <path
         id="path24"
         d="m 7048.58,1607.98 h -98.11 l -104.87,148.99 -51.91,-57.62 v -91.37 h -82.02 v 363.39 h 82.02 v -169.24 l 150.54,169.24 h 95.52 l -137.04,-151.07 145.87,-212.32"
         style="fill:#ffffff;fill-opacity:1;fill-rule:nonzero;stroke:none"
         transform="matrix(0.13333333,0,0,-0.13333333,0,384)" />
      <path
         id="path25"
         d="m 3225.48,1062.45 h 128.67 l -64.04,158.37 z m 190.39,-153.122 -32.02,79.184 H 3195.2 l -32.01,-79.184 h -94.91 l 177,407.542 h 94.89 l 174.09,-407.542 h -98.39"
         style="fill:#ffffff;fill-opacity:1;fill-rule:nonzero;stroke:none"
         transform="matrix(0.13333333,0,0,-0.13333333,0,384)" />
      <path
         id="path26"
         d="m 3911.33,1316.87 h 87.32 V 909.328 h -83.84 L 3717.44,1171.32 V 909.328 h -87.91 v 407.542 h 83.84 l 197.96,-263.16 v 263.16"
         style="fill:#ffffff;fill-opacity:1;fill-rule:nonzero;stroke:none"
         transform="matrix(0.13333333,0,0,-0.13333333,0,384)" />
      <path
         id="path27"
         d="m 4271.71,1062.45 h 128.67 l -64.05,158.37 z m 190.39,-153.122 -32.03,79.184 h -188.64 l -32.01,-79.184 h -94.91 l 176.99,407.542 h 94.9 l 174.09,-407.542 h -98.39"
         style="fill:#ffffff;fill-opacity:1;fill-rule:nonzero;stroke:none"
         transform="matrix(0.13333333,0,0,-0.13333333,0,384)" />
      <path
         id="path28"
         d="m 4675.76,1316.87 h 91.99 V 989.68 h 174.67 v -80.352 h -266.66 v 407.542"
         style="fill:#ffffff;fill-opacity:1;fill-rule:nonzero;stroke:none"
         transform="matrix(0.13333333,0,0,-0.13333333,0,384)" />
      <path
         id="path29"
         d="M 5414.57,1316.87 5266.11,1040.9 V 909.328 h -91.99 v 129.242 l -150.8,278.3 h 92.57 l 104.22,-182.81 101.89,182.81 h 92.57"
         style="fill:#ffffff;fill-opacity:1;fill-rule:nonzero;stroke:none"
         transform="matrix(0.13333333,0,0,-0.13333333,0,384)" />
      <path
         id="path30"
         d="m 5490.25,1316.87 h 340.59 v -78.01 H 5706.25 V 909.328 h -91.99 v 329.532 h -124.01 v 78.01"
         style="fill:#ffffff;fill-opacity:1;fill-rule:nonzero;stroke:none"
         transform="matrix(0.13333333,0,0,-0.13333333,0,384)" />
      <path
         id="path31"
         d="m 5953.11,1316.87 h 91.99 V 909.328 h -91.99 v 407.542"
         style="fill:#ffffff;fill-opacity:1;fill-rule:nonzero;stroke:none"
         transform="matrix(0.13333333,0,0,-0.13333333,0,384)" />
      <path
         id="path32"
         d="m 6454.1,1228.67 c -18.83,9.5 -37.76,14.27 -56.78,14.27 -22.9,0 -43.86,-5.64 -62.87,-16.89 -19.02,-11.26 -33.96,-26.59 -44.83,-46 -10.87,-19.41 -16.31,-40.95 -16.31,-64.62 0,-23.68 5.44,-45.32 16.31,-64.91 10.87,-19.6 25.81,-35.14 44.83,-46.58 19.01,-11.452 39.97,-17.178 62.87,-17.178 18.25,0 36.78,4.367 55.61,13.097 18.82,8.731 35.6,20.471 50.36,35.231 l 54.15,-58.809 c -21.75,-22.519 -47.26,-40.371 -76.57,-53.57 -29.31,-13.191 -58.71,-19.789 -88.2,-19.789 -39.98,0 -76.26,9.219 -108.88,27.656 -32.6,18.434 -58.22,43.762 -76.85,75.972 -18.62,32.22 -27.95,68.12 -27.95,107.72 0,39.2 9.52,74.71 28.54,106.55 19.01,31.81 45.12,56.85 78.3,75.1 33.19,18.24 69.96,27.36 110.34,27.36 29.49,0 58.6,-6.11 87.33,-18.34 28.72,-12.23 53.17,-28.82 73.36,-49.77 l -53.57,-65.8 c -13.98,16.68 -30.38,29.78 -49.19,39.3"
         style="fill:#ffffff;fill-opacity:1;fill-rule:nonzero;stroke:none"
         transform="matrix(0.13333333,0,0,-0.13333333,0,384)" />
      <path
         id="path33"
         d="m 6886.67,1233.92 c -23.49,7.56 -43.58,11.34 -60.26,11.34 -15.92,0 -28.52,-2.9 -37.85,-8.73 -9.31,-5.82 -13.96,-14.36 -13.96,-25.61 0,-14.37 6.69,-25.33 20.08,-32.9 13.39,-7.57 34.06,-15.43 62,-23.58 27.95,-8.15 50.95,-16.3 68.99,-24.45 18.06,-8.16 33.48,-20.38 46.29,-36.68 12.81,-16.31 19.22,-37.85 19.22,-64.63 0,-26.01 -6.9,-48.418 -20.68,-67.25 -13.77,-18.828 -32.69,-33.09 -56.76,-42.789 -24.07,-9.7 -51.44,-14.551 -82.09,-14.551 -32.99,0 -65.41,5.82 -97.23,17.469 -31.83,11.64 -59.39,27.55 -82.68,47.73 l 36.69,75.111 c 20.57,-18.63 44.24,-33.58 71.03,-44.83 26.77,-11.261 51.23,-16.89 73.35,-16.89 19.01,0 33.86,3.5 44.55,10.48 10.67,6.99 16,17.08 16,30.28 0,10.48 -3.59,19.11 -10.77,25.91 -7.19,6.79 -16.29,12.32 -27.35,16.59 -11.08,4.27 -26.31,9.12 -45.72,14.56 -27.94,7.75 -50.75,15.52 -68.41,23.29 -17.66,7.76 -32.89,19.59 -45.7,35.51 -12.8,15.92 -19.21,37.06 -19.21,63.46 0,24.46 6.6,45.89 19.79,64.33 13.2,18.43 31.64,32.61 55.32,42.51 23.66,9.9 51.23,14.85 82.67,14.85 27.95,0 55.5,-4.08 82.67,-12.23 27.16,-8.16 51.24,-19.02 72.2,-32.61 l -35.52,-76.27 c -20.95,12.81 -43.18,23 -66.66,30.58"
         style="fill:#ffffff;fill-opacity:1;fill-rule:nonzero;stroke:none"
         transform="matrix(0.13333333,0,0,-0.13333333,0,384)" />
    </g>
  </g>
</svg>
